PathFileType	4	(X/Y/Z)	s11c0001.trc
DataRate	CameraRate	NumFrames	NumMarkers	Units	OrigDataRate	OrigDataStartFrame	OrigNumFrames
200	200	4	49	mm	200	1250	2000
Frame#	Time	racr			lacr			c7			jug			rlel			rdr			llel			ldr			s2			lic			ric			lasi			rasi			rpsi			lpsi			rgt			lgt			rth1			rth2			rth3			rth4			rlfc			rmfc			rsh1			rsh2			rsh3			rsh4			rlmal			rmmal			rcal			rtoe			rmt5			rmt1			lth1			lth2			lth4			lth3			llfc			lmfc			llmal			lmmal			lcal			lmt1			lmt5			lsh1			lsh2			lsh3			lsh4			ltoe			
		X1	Y1	Z1	X2	Y2	Z2	X3	Y3	Z3	X4	Y4	Z4	X5	Y5	Z5	X6	Y6	Z6	X7	Y7	Z7	X8	Y8	Z8	X9	Y9	Z9	X10	Y10	Z10	X11	Y11	Z11	X12	Y12	Z12	X13	Y13	Z13	X14	Y14	Z14	X15	Y15	Z15	X16	Y16	Z16	X17	Y17	Z17	X18	Y18	Z18	X19	Y19	Z19	X20	Y20	Z20	X21	Y21	Z21	X22	Y22	Z22	X23	Y23	Z23	X24	Y24	Z24	X25	Y25	Z25	X26	Y26	Z26	X27	Y27	Z27	X28	Y28	Z28	X29	Y29	Z29	X30	Y30	Z30	X31	Y31	Z31	X32	Y32	Z32	X33	Y33	Z33	X34	Y34	Z34	X35	Y35	Z35	X36	Y36	Z36	X37	Y37	Z37	X38	Y38	Z38	X39	Y39	Z39	X40	Y40	Z40	X41	Y41	Z41	X42	Y42	Z42	X43	Y43	Z43	X44	Y44	Z44	X45	Y45	Z45	X46	Y46	Z46	X47	Y47	Z47	X48	Y48	Z48	X49	Y49	Z49	
1250	6.2500	483.692200	1571.785400	591.299683	454.717834	1596.240356	177.901749	388.561401	1620.197998	384.579529	551.960205	1561.132690	366.936646	484.505096	1313.527344	741.927185	614.251953	1087.088135	888.468567	426.247864	1300.981445	48.081135	551.149963	1062.232544	-129.541306	341.421478	1075.281860	392.909637	510.763031	1162.764771	175.612808	553.796143	1152.051514	566.577332	577.570862	1109.243774	205.069595	609.621826	1112.119385	520.916992	363.193787	1130.317139	447.473450	349.995087	1127.182739	344.719635	506.964508	960.975769	588.622986	443.400085	991.892761	174.033188	516.877930	833.541321	585.672241	537.146423	750.571655	560.228394	513.250916	668.618225	541.860229	571.064209	753.402222	547.839050	508.784821	562.946289	516.598572	503.454590	545.702637	396.884033	463.323334	413.843079	538.881348	478.348663	327.512451	524.961487	448.505402	244.908463	524.785339	504.577026	327.211060	495.881653	431.524811	108.638138	513.453064	463.368713	122.741455	425.945129	386.726379	80.283531	459.320465	667.365295	91.366791	518.992798	590.936279	54.216671	573.936890	609.832092	58.600315	458.480560	472.536987	858.901917	154.091965	491.870026	776.767578	168.958466	528.146851	775.420593	174.560226	465.691620	692.203796	183.146576	460.543060	550.325867	213.087326	474.550751	540.240967	339.246704	405.798706	117.411644	223.460190	436.705872	133.593262	297.684235	369.110626	68.571747	259.877594	592.870544	56.155224	292.013947	569.950500	55.365246	174.991318	423.397644	427.304230	192.214874	441.906067	343.446564	199.272079	416.246887	258.884827	202.851959	473.734985	343.962219	221.615311	660.179932	95.637100	243.999664	
1251	6.2550	483.696930	1571.805542	591.273193	454.749359	1596.236450	177.912262	388.567169	1620.202759	384.548431	551.952698	1561.131348	366.930878	484.534790	1313.575684	741.935242	614.295349	1087.128906	888.467896	426.253571	1300.991943	48.084877	551.196838	1062.219116	-129.531616	341.398743	1075.306396	392.913300	510.789764	1162.771240	175.625351	553.795288	1152.051025	566.575256	577.589294	1109.255249	205.098190	609.640930	1112.117920	520.927368	363.191528	1130.330811	447.472870	349.991913	1127.157837	344.726501	506.970490	960.984802	588.623901	443.407318	991.892029	174.034470	516.881287	833.536194	585.679077	537.138855	750.565674	560.227783	513.237305	668.622864	541.867432	571.059875	753.394592	547.830078	508.814056	562.944153	516.608521	503.485504	545.700623	396.898926	463.320038	413.847168	538.890442	478.360046	327.518616	524.949036	448.502991	244.923523	524.787842	504.567078	327.198486	495.874329	431.543640	108.640610	513.454041	463.363800	122.752800	425.939392	386.741180	80.292824	459.300751	667.378540	91.363632	518.999023	590.902710	54.211189	573.951416	609.839661	58.614368	458.490936	472.535187	858.903381	154.081131	491.884705	776.768433	168.953705	528.162109	775.418518	174.584717	465.701324	692.191895	183.146835	460.566467	550.325012	213.089020	474.524078	540.232422	339.263519	405.815979	117.422256	223.484894	436.713470	133.585831	297.686279	369.124908	68.574280	259.897644	592.863281	56.150627	292.012085	569.948730	55.369705	174.978180	423.370697	427.305206	192.195999	441.941833	343.446747	199.286880	416.256256	258.873932	202.882401	473.739655	343.946930	221.646988	660.177185	95.623779	243.999588	
1252	6.2600	483.708984	1571.806152	591.251038	454.733307	1596.223999	177.876251	388.568268	1620.198608	384.545837	551.960876	1561.146362	366.908264	484.567291	1313.580444	741.938782	614.348389	1087.203735	888.505005	426.257599	1300.977539	48.070244	551.206299	1062.224365	-129.512131	341.384369	1075.292969	392.929230	510.785461	1162.766113	175.630142	553.745178	1152.053589	566.542419	577.578674	1109.255127	205.090073	609.640930	1112.117920	520.927368	363.199280	1130.330200	447.441406	349.986847	1127.162109	344.750916	506.964203	960.986145	588.621399	443.407043	991.888489	174.028275	516.877747	833.542419	585.677551	537.143860	750.574341	560.230774	513.233704	668.637573	541.881592	571.045471	753.408813	547.836182	508.834473	562.970093	516.625793	503.486694	545.696777	396.898712	463.320679	413.846802	538.890869	478.385498	327.531830	524.973022	448.504913	244.911438	524.775391	504.567749	327.207397	495.879700	431.501343	108.594574	513.445740	463.387390	122.754074	425.943176	386.743134	80.253632	459.308990	667.371704	91.353729	519.003845	590.920776	54.213390	573.939636	609.831116	58.600353	458.472137	472.535339	858.900940	154.096695	491.899872	776.759338	168.982391	528.162109	775.418518	174.584732	465.700623	692.206299	183.161270	460.556366	550.322327	213.106415	474.525146	540.231079	339.265747	405.816925	117.414726	223.485580	436.716095	133.589218	297.693939	369.122986	68.565811	259.896576	592.856018	56.161400	292.012299	569.952209	55.368198	174.973801	423.385040	427.307617	192.198746	441.936188	343.439667	199.286697	416.292023	258.867676	202.883331	473.735474	343.950592	221.613342	660.173523	95.623184	243.993973	
1253	6.2650	483.702240	1571.822998	591.243225	454.748047	1596.230957	177.858978	388.579681	1620.213745	384.482758	551.961609	1561.153442	366.875763	484.585297	1313.608154	741.920166	614.385254	1087.232666	888.492554	426.260162	1300.966675	48.092529	551.223083	1062.211670	-129.503540	341.422699	1075.281250	392.894043	510.785645	1162.786255	175.627426	553.734192	1152.073730	566.550659	577.562195	1109.243286	205.092026	609.619934	1112.131104	520.916931	363.191528	1130.330811	447.472870	349.976501	1127.175537	344.739258	506.960663	960.982849	588.607910	443.398285	991.897827	174.027695	516.868896	833.545349	585.678284	537.136108	750.578735	560.222900	513.234558	668.621338	541.855896	571.048767	753.406189	547.825500	508.818237	562.958862	516.618713	503.455322	545.700012	396.892639	463.316254	413.857239	538.888977	478.369965	327.511536	524.965454	448.506409	244.916351	524.783447	504.551575	327.207031	495.887115	431.518433	108.632050	513.444519	463.371063	122.738007	425.945709	386.743378	80.287010	459.313110	667.359253	91.356308	518.992615	590.937683	54.219818	573.943115	609.816833	58.616161	458.487915	472.529419	858.896240	154.107620	491.871368	776.774353	168.983292	528.162537	775.410583	174.580826	465.700165	692.194946	183.145508	460.573517	550.335266	213.098297	474.523010	540.233765	339.261322	405.816345	117.411140	223.467911	436.713470	133.585815	297.686279	369.128174	68.560684	259.894714	592.858154	56.148510	292.011658	569.962036	55.376579	175.002762	423.397369	427.318237	192.207733	441.930786	343.447021	199.281448	416.265961	258.887115	202.862976	473.742157	343.961395	221.618683	660.189514	95.632233	244.016479	
